<?xml version="1.0" encoding="utf-8"?>
<!-- Generator: Adobe Illustrator 17.0.0, SVG Export Plug-In . SVG Version: 6.00 Build 0)  -->
<!DOCTYPE svg PUBLIC "-//W3C//DTD SVG 1.1//EN" "http://www.w3.org/Graphics/SVG/1.1/DTD/svg11.dtd">
<svg version="1.1" id="Layer_1" xmlns="http://www.w3.org/2000/svg" xmlns:xlink="http://www.w3.org/1999/xlink" x="0px" y="0px"
	 width="430px" height="230px" viewBox="0 0 430 230" enable-background="new 0 0 430 230" xml:space="preserve">
<g id="Layer_2">
	<g>
		<path fill="#898989" d="M253.667,70.083c0,3.438-2.812,6.25-6.25,6.25h-62.5c-3.438,0-6.25-2.812-6.25-6.25v-47.5
			c0-3.438,2.812-6.25,6.25-6.25h62.5c3.438,0,6.25,2.812,6.25,6.25V70.083z M184.917,21.333c-0.664,0-1.25,0.586-1.25,1.25v47.5
			c0,0.664,0.586,1.25,1.25,1.25h62.5c0.664,0,1.25-0.586,1.25-1.25v-47.5c0-0.664-0.586-1.25-1.25-1.25H184.917z M196.167,41.333
			c-4.141,0-7.5-3.359-7.5-7.5s3.359-7.5,7.5-7.5s7.5,3.359,7.5,7.5S200.308,41.333,196.167,41.333z M243.667,66.333h-55v-7.5
			l12.5-12.5l6.25,6.25l20-20l16.25,16.25V66.333z"/>
	</g>
	<g>
		<path fill="#898989" d="M118.099,119.594c0-1.998,0.586-3.774,1.758-5.329c1.171-1.556,2.716-2.333,4.634-2.333
			c1.795,0,3.123,0.676,3.984,2.027l1.404-6.324h2.795l-3.702,16.675h-2.795l0.357-1.608c-1.057,1.276-2.315,1.913-3.774,1.913
			c-1.397,0-2.523-0.442-3.378-1.328S118.099,121.17,118.099,119.594z M120.895,119.075c0,0.957,0.277,1.723,0.831,2.297
			c0.554,0.575,1.264,0.862,2.129,0.862c1.229,0,2.281-0.559,3.155-1.677l1.037-4.669c-0.284-0.466-0.704-0.846-1.259-1.138
			c-0.556-0.293-1.194-0.439-1.916-0.439c-1.143,0-2.092,0.473-2.846,1.417C121.271,116.674,120.895,117.789,120.895,119.075z"/>
		<path fill="#898989" d="M132.162,124.31l2.673-12.072h2.795l-0.37,1.668c1.18-1.315,2.641-1.974,4.382-1.974l-0.61,2.698
			c-0.301-0.082-0.651-0.123-1.05-0.123c-0.603,0-1.195,0.155-1.776,0.464c-0.582,0.309-1.062,0.696-1.439,1.163l-1.81,8.176
			H132.162z"/>
		<path fill="#898989" d="M141.305,119.147c0-1.934,0.664-3.62,1.99-5.059c1.327-1.438,2.977-2.157,4.949-2.157
			c1.819,0,3.248,0.502,4.286,1.505c1.037,1.003,1.556,2.315,1.556,3.938c0,1.934-0.666,3.624-1.997,5.07s-2.979,2.169-4.942,2.169
			c-1.819,0-3.248-0.505-4.286-1.516C141.823,122.087,141.305,120.771,141.305,119.147z M144.1,119.051
			c0,0.989,0.278,1.767,0.834,2.333c0.557,0.567,1.327,0.851,2.31,0.851c1.146,0,2.106-0.477,2.882-1.429s1.164-2.056,1.164-3.311
			c0-0.988-0.28-1.767-0.841-2.333s-1.329-0.851-2.303-0.851c-1.146,0-2.106,0.473-2.882,1.417
			C144.488,116.674,144.1,117.781,144.1,119.051z"/>
		<path fill="#898989" d="M154.146,128.911l3.704-16.674h2.795l-0.354,1.597c1.03-1.269,2.282-1.902,3.758-1.902
			c1.414,0,2.546,0.438,3.396,1.316c0.851,0.878,1.276,2.104,1.276,3.681c0,1.283-0.242,2.501-0.725,3.654s-1.225,2.113-2.225,2.881
			c-1,0.768-2.147,1.15-3.442,1.15c-0.842,0-1.615-0.179-2.319-0.538s-1.259-0.856-1.664-1.493l-1.406,6.328H154.146z
			 M158.78,120.64c0.283,0.465,0.703,0.847,1.258,1.146c0.555,0.3,1.189,0.449,1.902,0.449c1.142,0,2.092-0.477,2.85-1.429
			c0.757-0.952,1.136-2.072,1.136-3.358c0-0.957-0.274-1.719-0.821-2.285s-1.263-0.851-2.147-0.851
			c-0.616,0-1.202,0.154-1.757,0.462c-0.556,0.308-1.016,0.701-1.38,1.183L158.78,120.64z"/>
		<path fill="#898989" d="M176.083,124.31l2.832-12.072h2.795l-2.832,12.072H176.083z M179.232,109.356
			c0-0.554,0.212-0.999,0.636-1.337s0.876-0.507,1.357-0.507c0.304,0,0.561,0.137,0.77,0.409s0.313,0.6,0.313,0.982
			c0,0.554-0.157,1.001-0.471,1.343c-0.313,0.342-0.653,0.513-1.019,0.513c-0.446,0-0.822-0.139-1.127-0.415
			C179.385,110.068,179.232,109.738,179.232,109.356z"/>
		<path fill="#898989" d="M182.796,114.617l0.525-2.38h2.01l0.712-3.199h2.795l-0.708,3.199h2.454l-0.525,2.38h-2.457l-1.559,7.033
			c-0.033,0.076-0.049,0.133-0.049,0.17c0,0.276,0.424,0.414,1.273,0.414c0.407,0,0.762-0.107,1.065-0.323l0.169,2.143
			c-0.528,0.374-1.204,0.561-2.026,0.561c-1.026,0-1.829-0.209-2.408-0.628c-0.579-0.418-0.868-1.042-0.868-1.871
			c0-0.179,0.024-0.391,0.073-0.635l1.528-6.863H182.796z"/>
		<path fill="#898989" d="M196.517,124.31l3.833-16.675h2.795l-3.833,16.675H196.517z"/>
		<path fill="#898989" d="M202.535,124.31l2.832-12.072h2.795l-2.832,12.072H202.535z M205.685,109.356
			c0-0.554,0.212-0.999,0.636-1.337s0.876-0.507,1.357-0.507c0.304,0,0.561,0.137,0.77,0.409s0.313,0.6,0.313,0.982
			c0,0.554-0.157,1.001-0.471,1.343c-0.313,0.342-0.653,0.513-1.019,0.513c-0.446,0-0.822-0.139-1.127-0.415
			C205.837,110.068,205.685,109.738,205.685,109.356z"/>
		<path fill="#898989" d="M208.553,124.31l3.833-16.675h2.795l-2.355,10.246l6.527-5.644h3.345l-6.226,5.469l3.649,6.604h-3.149
			l-2.649-5.078l-2.229,1.834l-0.746,3.244H208.553z"/>
		<path fill="#898989" d="M222.079,119.207c0-2.002,0.661-3.715,1.983-5.139c1.322-1.425,2.96-2.137,4.913-2.137
			c1.587,0,2.875,0.501,3.864,1.503c0.988,1.001,1.482,2.336,1.482,4.002c0,0.573-0.081,1.14-0.244,1.697h-9.326
			c-0.017,0.049-0.024,0.184-0.024,0.404c0,0.768,0.319,1.448,0.959,2.04c0.639,0.592,1.535,0.888,2.691,0.888
			c1.318,0,2.393-0.343,3.223-1.028l0.854,1.854c-1.27,0.882-2.698,1.322-4.285,1.322c-1.863,0-3.345-0.487-4.443-1.464
			S222.079,120.859,222.079,119.207z M225.021,117.437h6.873h0.061c0-0.034,0.004-0.094,0.013-0.181
			c0.008-0.086,0.012-0.138,0.012-0.154c0-0.878-0.276-1.602-0.83-2.169c-0.554-0.568-1.339-0.853-2.355-0.853
			c-0.937,0-1.763,0.331-2.479,0.994S225.167,116.524,225.021,117.437z"/>
		<path fill="#898989" d="M241.964,124.31l2.832-12.072h2.796l-2.832,12.072H241.964z M245.113,109.356
			c0-0.554,0.212-0.999,0.636-1.337s0.877-0.507,1.357-0.507c0.305,0,0.561,0.137,0.77,0.409s0.313,0.6,0.313,0.982
			c0,0.554-0.156,1.001-0.471,1.343c-0.313,0.342-0.653,0.513-1.019,0.513c-0.446,0-0.822-0.139-1.128-0.415
			S245.113,109.738,245.113,109.356z"/>
		<path fill="#898989" d="M248.678,114.617l0.525-2.38h2.01l0.712-3.199h2.796l-0.709,3.199h2.454l-0.525,2.38h-2.456l-1.56,7.033
			c-0.032,0.076-0.049,0.133-0.049,0.17c0,0.276,0.425,0.414,1.273,0.414c0.406,0,0.762-0.107,1.064-0.323l0.169,2.143
			c-0.528,0.374-1.204,0.561-2.026,0.561c-1.026,0-1.829-0.209-2.407-0.628c-0.579-0.418-0.868-1.042-0.868-1.871
			c0-0.179,0.024-0.391,0.073-0.635l1.528-6.863H248.678z"/>
		<path fill="#898989" d="M258.199,112.737c1.18-0.569,1.945-1.27,2.295-2.1c-0.032,0.017-0.114,0.024-0.244,0.024
			c-0.366,0-0.68-0.13-0.939-0.391c-0.261-0.261-0.391-0.606-0.391-1.038c0-0.496,0.193-0.928,0.58-1.293
			c0.386-0.367,0.827-0.55,1.324-0.55c0.479,0,0.879,0.152,1.196,0.458c0.317,0.305,0.476,0.742,0.476,1.312
			c0,0.862-0.319,1.731-0.958,2.605c-0.639,0.875-1.427,1.54-2.362,1.996L258.199,112.737z"/>
		<path fill="#898989" d="M261.039,122.382l1.55-1.769c0.383,0.474,0.956,0.9,1.722,1.281c0.765,0.382,1.566,0.571,2.404,0.571
			c0.665,0,1.196-0.156,1.594-0.469s0.597-0.693,0.597-1.143c0-0.346-0.213-0.645-0.639-0.896c-0.426-0.253-0.945-0.478-1.558-0.674
			s-1.244-0.419-1.896-0.668s-1.201-0.602-1.647-1.059c-0.445-0.457-0.669-1.007-0.669-1.648c0-1.096,0.444-2.032,1.332-2.811
			s2.098-1.167,3.629-1.167c1.044,0,2.018,0.186,2.921,0.557c0.903,0.37,1.623,0.858,2.16,1.466l-1.428,1.727
			c-0.297-0.425-0.802-0.799-1.514-1.119c-0.712-0.321-1.449-0.481-2.212-0.481c-0.649,0-1.16,0.133-1.533,0.397
			s-0.56,0.602-0.56,1.01c0,0.378,0.328,0.719,0.984,1.023s1.375,0.567,2.154,0.788c0.78,0.221,1.52,0.602,2.22,1.143
			c0.7,0.542,1.05,1.218,1.05,2.027c0,1.17-0.467,2.152-1.401,2.95c-0.935,0.797-2.206,1.195-3.815,1.195
			C264.155,124.606,262.341,123.862,261.039,122.382z"/>
		<path fill="#898989" d="M279.586,124.31l3.833-16.675h2.796l-1.432,6.227c1.376-1.286,2.776-1.93,4.201-1.93
			c1.143,0,2.056,0.274,2.737,0.824c0.683,0.549,1.023,1.299,1.023,2.248c0,0.468-0.049,0.924-0.146,1.369l-1.758,7.937h-2.795
			l1.807-8.158c0.064-0.202,0.098-0.39,0.098-0.562c0-0.852-0.793-1.278-2.377-1.278c-1.069,0-2.154,0.526-3.256,1.577l-1.936,8.421
			H279.586z"/>
		<path fill="#898989" d="M294.235,119.147c0-1.934,0.663-3.62,1.99-5.059c1.327-1.438,2.977-2.157,4.948-2.157
			c1.82,0,3.248,0.502,4.286,1.505c1.037,1.003,1.557,2.315,1.557,3.938c0,1.934-0.666,3.624-1.997,5.07s-2.979,2.169-4.942,2.169
			c-1.819,0-3.248-0.505-4.285-1.516C294.754,122.087,294.235,120.771,294.235,119.147z M297.03,119.051
			c0,0.989,0.278,1.767,0.835,2.333c0.557,0.567,1.326,0.851,2.31,0.851c1.146,0,2.106-0.477,2.882-1.429
			c0.776-0.952,1.164-2.056,1.164-3.311c0-0.988-0.28-1.767-0.841-2.333s-1.328-0.851-2.304-0.851c-1.146,0-2.105,0.473-2.882,1.417
			C297.419,116.674,297.03,117.781,297.03,119.051z"/>
		<path fill="#898989" d="M308.798,114.617l0.524-2.38h2.011l0.712-3.199h2.795l-0.708,3.199h2.453l-0.524,2.38h-2.457l-1.559,7.033
			c-0.032,0.076-0.049,0.133-0.049,0.17c0,0.276,0.424,0.414,1.272,0.414c0.407,0,0.763-0.107,1.065-0.323l0.169,2.143
			c-0.528,0.374-1.204,0.561-2.026,0.561c-1.026,0-1.829-0.209-2.407-0.628c-0.579-0.418-0.868-1.042-0.868-1.871
			c0-0.179,0.023-0.391,0.072-0.635l1.529-6.863H308.798z"/>
	</g>
</g>
<g id="Layer_3">
	<rect x="82" y="169.667" fill="#F1663C" width="267.333" height="59.333"/>
	<g>
		<path fill="#FFFFFF" d="M120.459,205.897c0,0.503-0.408,0.911-0.911,0.911h-13.971c-0.503,0-0.911-0.408-0.911-0.911v-3.037
			c0-0.503,0.408-0.911,0.911-0.911h4.053c0.256,0.702,0.93,1.215,1.718,1.215h2.43c0.788,0,1.461-0.513,1.718-1.215h4.053
			c0.503,0,0.911,0.408,0.911,0.911v3.037H120.459z M116.815,197.09h-2.43v4.252c0,0.332-0.275,0.607-0.607,0.607h-2.43
			c-0.332,0-0.607-0.275-0.607-0.607v-4.252h-2.43c-0.247,0-0.465-0.151-0.56-0.38c-0.095-0.218-0.047-0.483,0.133-0.654
			l4.252-4.252c0.114-0.124,0.275-0.181,0.427-0.181s0.313,0.057,0.427,0.181l4.252,4.252c0.18,0.171,0.228,0.437,0.133,0.654
			C117.28,196.938,117.062,197.09,116.815,197.09z M116.208,204.379c-0.332,0-0.607,0.275-0.607,0.607s0.275,0.607,0.607,0.607
			s0.607-0.275,0.607-0.607S116.54,204.379,116.208,204.379z M118.637,204.379c-0.332,0-0.607,0.275-0.607,0.607
			s0.275,0.607,0.607,0.607s0.607-0.275,0.607-0.607S118.969,204.379,118.637,204.379z"/>
	</g>
	<g>
		<path fill="#FFFFFF" d="M137.272,201.341v-7.553h2.197v7.511c0,1.015,0.275,1.817,0.825,2.407c0.55,0.59,1.338,0.885,2.365,0.885
			s1.815-0.295,2.365-0.885c0.55-0.59,0.826-1.393,0.826-2.407v-7.511h2.197v7.553c0,1.6-0.457,2.862-1.37,3.79
			s-2.252,1.392-4.018,1.392c-1.753,0-3.09-0.467-4.009-1.4C137.731,204.188,137.272,202.928,137.272,201.341z"/>
		<path fill="#FFFFFF" d="M150.712,209.745v-12.506h1.969v1.266c0.738-0.996,1.708-1.494,2.911-1.494c1.201,0,2.176,0.43,2.924,1.29
			c0.748,0.86,1.123,2.013,1.123,3.457c0,1.443-0.376,2.599-1.127,3.466c-0.751,0.866-1.725,1.299-2.919,1.299
			c-1.16,0-2.13-0.504-2.911-1.514v4.736H150.712z M152.681,203.517c0.226,0.344,0.558,0.633,0.998,0.868s0.882,0.353,1.328,0.353
			c0.775,0,1.397-0.277,1.868-0.832c0.47-0.555,0.705-1.271,0.705-2.147s-0.235-1.59-0.705-2.139
			c-0.47-0.549-1.093-0.823-1.868-0.823c-0.452,0-0.896,0.113-1.332,0.339c-0.437,0.227-0.768,0.508-0.993,0.846V203.517z"/>
		<path fill="#FFFFFF" d="M161.561,206.294v-12.506h1.969v12.506H161.561z"/>
		<path fill="#FFFFFF" d="M165.534,201.753c0-1.349,0.427-2.477,1.281-3.383s1.98-1.359,3.379-1.359
			c1.398,0,2.524,0.453,3.378,1.359c0.854,0.906,1.282,2.034,1.282,3.383c0,1.337-0.427,2.466-1.282,3.388
			c-0.854,0.922-1.98,1.382-3.378,1.382c-1.398,0-2.525-0.46-3.379-1.382S165.534,203.09,165.534,201.753z M167.594,201.753
			c0,0.838,0.234,1.545,0.704,2.121s1.103,0.863,1.901,0.863c0.81,0,1.445-0.286,1.905-0.859c0.46-0.572,0.69-1.28,0.69-2.125
			c0-0.826-0.23-1.525-0.69-2.098c-0.46-0.573-1.095-0.859-1.905-0.859c-0.798,0-1.432,0.286-1.901,0.859
			C167.829,200.228,167.594,200.927,167.594,201.753z"/>
		<path fill="#FFFFFF" d="M176.31,203.52c0-0.977,0.312-1.715,0.938-2.215c0.626-0.501,1.356-0.751,2.193-0.751
			c1.288,0,2.268,0.388,2.939,1.162v-1.374c0-0.523-0.197-0.94-0.591-1.253c-0.394-0.312-0.902-0.467-1.524-0.467
			c-1.025,0-1.92,0.397-2.683,1.193l-0.824-1.396c1.013-0.938,2.283-1.408,3.809-1.408c1.108,0,2.016,0.259,2.722,0.778
			c0.707,0.519,1.06,1.349,1.06,2.49v6.015h-1.968v-0.998c-0.702,0.812-1.682,1.221-2.939,1.227c-0.812,0-1.537-0.269-2.174-0.806
			S176.31,204.447,176.31,203.52z M178.832,202.357c-0.369,0.299-0.554,0.692-0.554,1.181s0.185,0.882,0.554,1.182
			c0.369,0.299,0.834,0.448,1.396,0.448c0.964,0,1.682-0.312,2.152-0.934v-1.392c-0.476-0.623-1.193-0.935-2.152-0.935
			C179.667,201.908,179.201,202.059,178.832,202.357z"/>
		<path fill="#FFFFFF" d="M186.354,201.753c0-1.44,0.378-2.591,1.135-3.451s1.726-1.291,2.908-1.291
			c1.212,0,2.181,0.505,2.906,1.514v-4.736h1.968v12.506h-1.968v-1.266c-0.749,0.996-1.718,1.494-2.906,1.494
			c-1.188,0-2.158-0.425-2.912-1.276S186.354,203.23,186.354,201.753z M189.117,199.619c-0.469,0.549-0.704,1.262-0.704,2.139
			s0.234,1.593,0.704,2.147s1.09,0.832,1.864,0.832c0.451,0,0.894-0.117,1.33-0.353c0.435-0.235,0.766-0.519,0.991-0.85v-3.536
			c-0.225-0.332-0.557-0.615-0.996-0.851c-0.438-0.235-0.88-0.353-1.325-0.353C190.208,198.796,189.586,199.07,189.117,199.619z"/>
		<path fill="#FFFFFF" d="M201.606,199.024v-1.785h1.501v-0.504c0-0.976,0.258-1.742,0.773-2.298
			c0.516-0.555,1.207-0.833,2.074-0.833c0.964,0,1.688,0.263,2.17,0.787l-0.769,1.218c-0.287-0.262-0.629-0.394-1.025-0.394
			c-0.836,0-1.254,0.507-1.254,1.52v0.504h1.831v1.785h-1.831v7.27h-1.968v-7.27H201.606z"/>
		<path fill="#FFFFFF" d="M208.399,206.294v-9.055h1.969v1.338c0.36-0.46,0.801-0.836,1.323-1.128
			c0.522-0.293,1.063-0.438,1.625-0.438v1.986c-0.177-0.036-0.378-0.055-0.604-0.055c-0.428,0-0.875,0.121-1.341,0.364
			c-0.467,0.243-0.801,0.525-1.002,0.848v6.14H208.399z"/>
		<path fill="#FFFFFF" d="M214.359,201.753c0-1.349,0.427-2.477,1.281-3.383c0.854-0.906,1.98-1.359,3.379-1.359
			s2.524,0.453,3.379,1.359s1.281,2.034,1.281,3.383c0,1.337-0.427,2.466-1.281,3.388s-1.98,1.382-3.379,1.382
			s-2.524-0.46-3.379-1.382C214.787,204.219,214.359,203.09,214.359,201.753z M216.42,201.753c0,0.838,0.234,1.545,0.703,2.121
			c0.47,0.576,1.103,0.863,1.901,0.863c0.81,0,1.445-0.286,1.905-0.859c0.46-0.572,0.69-1.28,0.69-2.125
			c0-0.826-0.23-1.525-0.69-2.098c-0.46-0.573-1.096-0.859-1.905-0.859c-0.799,0-1.432,0.286-1.901,0.859
			C216.654,200.228,216.42,200.927,216.42,201.753z"/>
		<path fill="#FFFFFF" d="M225.657,206.294v-9.055h1.969v1.247c0.25-0.343,0.649-0.674,1.199-0.995
			c0.549-0.32,1.138-0.48,1.767-0.48c0.645,0,1.18,0.149,1.605,0.448s0.712,0.71,0.857,1.233c0.275-0.448,0.699-0.841,1.271-1.177
			c0.571-0.337,1.176-0.505,1.812-0.505c0.836,0,1.48,0.231,1.933,0.695s0.678,1.145,0.678,2.042v6.546h-1.968v-5.876
			c0-1.082-0.502-1.622-1.506-1.622c-0.416,0-0.818,0.118-1.207,0.355c-0.389,0.236-0.687,0.516-0.895,0.838v6.305h-1.969v-5.876
			c0-1.082-0.491-1.622-1.474-1.622c-0.415,0-0.813,0.118-1.195,0.355c-0.381,0.236-0.685,0.516-0.91,0.838v6.305H225.657z"/>
		<path fill="#FFFFFF" d="M246.92,205.16c-0.888-0.909-1.332-2.043-1.332-3.402s0.444-2.49,1.332-3.394
			c0.889-0.902,2.013-1.354,3.374-1.354c1.514,0,2.67,0.548,3.47,1.645l-1.3,1.172c-0.501-0.693-1.193-1.037-2.078-1.031
			c-0.812,0-1.472,0.274-1.978,0.823c-0.507,0.549-0.76,1.262-0.76,2.139s0.253,1.593,0.76,2.147
			c0.506,0.555,1.165,0.832,1.978,0.832c0.872,0,1.565-0.358,2.078-1.076l1.3,1.207c-0.812,1.097-1.969,1.648-3.47,1.654
			C248.933,206.522,247.809,206.068,246.92,205.16z"/>
		<path fill="#FFFFFF" d="M254.917,201.753c0-1.349,0.428-2.477,1.281-3.383c0.854-0.906,1.98-1.359,3.379-1.359
			s2.524,0.453,3.379,1.359s1.281,2.034,1.281,3.383c0,1.337-0.427,2.466-1.281,3.388s-1.98,1.382-3.379,1.382
			s-2.524-0.46-3.379-1.382C255.345,204.219,254.917,203.09,254.917,201.753z M256.978,201.753c0,0.838,0.234,1.545,0.703,2.121
			c0.47,0.576,1.103,0.863,1.901,0.863c0.81,0,1.445-0.286,1.905-0.859c0.46-0.572,0.69-1.28,0.69-2.125
			c0-0.826-0.23-1.525-0.69-2.098c-0.46-0.573-1.096-0.859-1.905-0.859c-0.799,0-1.432,0.286-1.901,0.859
			C257.212,200.228,256.978,200.927,256.978,201.753z"/>
		<path fill="#FFFFFF" d="M266.215,206.294v-9.055h1.969v1.247c0.25-0.343,0.65-0.674,1.199-0.995c0.55-0.32,1.139-0.48,1.767-0.48
			c0.646,0,1.181,0.149,1.606,0.448s0.711,0.71,0.857,1.233c0.275-0.448,0.699-0.841,1.271-1.177
			c0.572-0.337,1.177-0.505,1.812-0.505c0.837,0,1.481,0.231,1.933,0.695c0.452,0.464,0.679,1.145,0.679,2.042v6.546h-1.969v-5.876
			c0-1.082-0.502-1.622-1.505-1.622c-0.417,0-0.818,0.118-1.207,0.355c-0.389,0.236-0.688,0.516-0.896,0.838v6.305h-1.968v-5.876
			c0-1.082-0.492-1.622-1.475-1.622c-0.415,0-0.813,0.118-1.194,0.355c-0.382,0.236-0.686,0.516-0.911,0.838v6.305H266.215z"/>
		<path fill="#FFFFFF" d="M281.852,209.745v-12.506h1.969v1.266c0.738-0.996,1.709-1.494,2.911-1.494c1.201,0,2.176,0.43,2.925,1.29
			c0.748,0.86,1.122,2.013,1.122,3.457c0,1.443-0.376,2.599-1.127,3.466c-0.752,0.866-1.725,1.299-2.92,1.299
			c-1.159,0-2.13-0.504-2.911-1.514v4.736H281.852z M283.82,203.517c0.226,0.344,0.559,0.633,0.998,0.868s0.882,0.353,1.327,0.353
			c0.775,0,1.397-0.277,1.868-0.832c0.47-0.555,0.705-1.271,0.705-2.147s-0.235-1.59-0.705-2.139
			c-0.471-0.549-1.093-0.823-1.868-0.823c-0.451,0-0.896,0.113-1.332,0.339c-0.437,0.227-0.768,0.508-0.993,0.846V203.517z"/>
		<path fill="#FFFFFF" d="M292.701,203.648v-6.409h1.969v5.648c0,0.675,0.156,1.151,0.471,1.431s0.771,0.419,1.369,0.419
			c0.464,0,0.901-0.115,1.313-0.346c0.412-0.231,0.743-0.508,0.993-0.829v-6.323h1.969v9.055h-1.969v-1.229
			c-0.848,0.972-1.91,1.457-3.186,1.457c-0.965,0-1.693-0.247-2.188-0.741C292.948,205.287,292.701,204.576,292.701,203.648z"/>
		<path fill="#FFFFFF" d="M302.241,199.024v-1.785h1.501v-2.398h1.969v2.398h1.84v1.785h-1.84v4.646
			c0,0.317,0.076,0.574,0.229,0.771s0.366,0.296,0.641,0.296c0.373,0,0.659-0.11,0.861-0.332l0.467,1.52
			c-0.439,0.393-1.053,0.592-1.841,0.598c-1.55,0-2.325-0.772-2.325-2.318v-5.18H302.241z"/>
		<path fill="#FFFFFF" d="M308.769,201.753c0-1.324,0.436-2.446,1.305-3.364c0.87-0.919,1.967-1.378,3.291-1.378
			c1.337,0,2.411,0.459,3.223,1.378c0.812,0.918,1.218,2.098,1.218,3.538v0.485h-6.976c0.073,0.717,0.365,1.312,0.878,1.787
			s1.175,0.712,1.987,0.712c1.05,0,1.913-0.337,2.591-1.011l0.897,1.293c-0.952,0.881-2.177,1.323-3.672,1.329
			c-1.386,0-2.521-0.439-3.41-1.318C309.213,204.325,308.769,203.175,308.769,201.753z M310.811,201.002h5.099
			c-0.036-0.622-0.27-1.175-0.7-1.657c-0.43-0.481-1.051-0.723-1.862-0.723c-0.775,0-1.383,0.241-1.822,0.723
			C311.085,199.827,310.847,200.38,310.811,201.002z"/>
		<path fill="#FFFFFF" d="M319.745,206.294v-9.055h1.969v1.338c0.359-0.46,0.801-0.836,1.322-1.128
			c0.522-0.293,1.063-0.438,1.626-0.438v1.986c-0.178-0.036-0.379-0.055-0.604-0.055c-0.428,0-0.875,0.121-1.342,0.364
			s-0.801,0.525-1.002,0.848v6.14H319.745z"/>
	</g>
</g>
</svg>
